<svg xmlns="http://www.w3.org/2000/svg" viewBox="0 0 70.18 82"><defs><style>.cls-1{fill:#fff;stroke:#767676;stroke-width:2px;}.cls-2{fill:#ff6f00;}.cls-3{fill:none;stroke:#fff;stroke-linecap:round;stroke-linejoin:round;stroke-width:3px;}</style></defs><title>arrivalpoint-icon_1</title><g id="Layer_2" data-name="Layer 2"><g id="Layer_1-2" data-name="Layer 1"><path class="cls-1" d="M39.7,79.21c2.47-2.49,9.44-9.81,15.17-15.76,2.58-3,14.4-12.17,14.31-27.91C69.09,17.12,54,1,34.65,1,25,1,16,5.81,10,12.58A35.42,35.42,0,0,0,1,35.54C1,48.72,9.89,58,14.73,63.07,20.89,70.05,27,76,30.15,79.19A6.73,6.73,0,0,0,35,81,6.77,6.77,0,0,0,39.7,79.21Z"/><path class="cls-2" d="M35.08,55.81A20.43,20.43,0,1,0,14.64,35.38,20.43,20.43,0,0,0,35.08,55.81Z"/><path class="cls-3" d="M29.63,26.44V41"/><path class="cls-3" d="M29.63,33.72H40.55"/><path class="cls-3" d="M40.54,26.44V41"/><path class="cls-2" d="M35,55.81A20.43,20.43,0,1,1,55.45,35.38,20.44,20.44,0,0,1,35,55.81Z"/><path class="cls-3" d="M40.46,26.44V41"/><path class="cls-3" d="M40.46,33.72H29.54"/><path class="cls-3" d="M29.55,26.44V41"/></g></g></svg>