<svg xmlns="http://www.w3.org/2000/svg" viewBox="0 0 63.03 82"><defs><style>.cls-1{fill:#fff;}.cls-1,.cls-2{stroke:#767676;stroke-linecap:round;stroke-linejoin:round;stroke-width:2px;}.cls-2{fill:none;}</style></defs><title>backpack-icon-w</title><g id="Layer_2" data-name="Layer 2"><g id="Layer_1-2" data-name="Layer 1"><path class="cls-1" d="M1.22,58.32a2.56,2.56,0,0,0,.35,1.32c1.28,2.23,4.68,2.74,5.28,1.7C22.31,34.71,17,15.68,16.76,15.47S9.32,6.44,8,6c-1.21-.38-6,1.61-6,1.61a.88.88,0,0,0-.17.1C.53,8.94,1.14,53,1.22,58.32Z"/><path class="cls-1" d="M1.94,7.62s1.91.4,5.5,4.82c1.68,2.06,3.11,4.3,4.66,6.63.08.12.16.24.23.36L21.7,16.5a1.25,1.25,0,0,0,.67-1.86c-.63-1-1.22-1.92-1.79-2.82a26.81,26.81,0,0,0-7-7,2.81,2.81,0,0,0-2.45-.39C9.26,5,6.1,6,3.77,6.92l-1,.35Z"/><path class="cls-1" d="M61.26,7.72a.88.88,0,0,0-.17-.1s-4.8-2-6-1.61-8.67,9.34-8.8,9.46-5.55,19.24,9.91,45.87c.6,1,4,.53,5.29-1.7a2.65,2.65,0,0,0,.34-1.32C61.89,53,62.5,8.94,61.26,7.72Z"/><path class="cls-1" d="M60.24,7.27l-1-.35C56.94,6,53.78,5,51.93,4.44a2.82,2.82,0,0,0-2.45.39,26.64,26.64,0,0,0-7,7c-.58.9-1.17,1.85-1.8,2.82a1.25,1.25,0,0,0,.68,1.86l9.36,2.93.23-.36c1.56-2.33,3-4.57,4.66-6.63,3.59-4.42,5.5-4.82,5.5-4.82Z"/><path class="cls-1" d="M36.91,11.33a0,0,0,0,1,0,0c0-.42,0-5.89,0-5.89l4,.32-.79,5.61Z"/><path class="cls-1" d="M22.44,11.51l3.63,0a0,0,0,0,0,0,0c0-.43,0-6.18,0-6.18l-4,.22.28,6A0,0,0,0,0,22.44,11.51Z"/><path class="cls-1" d="M40.84,5.75s0,0,0,0c-.51-.51-4.23-4.2-5.38-4.46A11.17,11.17,0,0,0,34,1.07L31.18,1s-1.38,0-2.67.06h0a10.91,10.91,0,0,0-1.65.18C25.71,1.5,22.57,5,22.14,5.45c0,0,0,0,0,0,.34,0,1.94-.13,3.93-.22h0c1.58-.07,3.41-.13,5.08-.13s4.08.14,5.89.27S40.48,5.71,40.84,5.75Z"/><path class="cls-1" d="M32.06,8.66C16.75,8.35,4.29,21,4.29,36.32V67.8h0v.28h0a13,13,0,0,0,.58,3.82h0A12.94,12.94,0,0,0,16.63,81H46.38a12.94,12.94,0,0,0,11.77-9.08h0a13,13,0,0,0,.57-3.83V67.8h0V35.87A27.2,27.2,0,0,0,32.06,8.66Z"/><path class="cls-1" d="M50.88,55.46a4.11,4.11,0,0,1-4.11,4.11H16.25a4.11,4.11,0,0,1-4.11-4.11V36.55a4.11,4.11,0,0,1,4.11-4.1H46.77a4.11,4.11,0,0,1,4.11,4.1Z"/><line class="cls-2" x1="12.14" y1="40.37" x2="50.43" y2="40.37"/></g></g></svg>