<svg xmlns="http://www.w3.org/2000/svg" viewBox="0 0 90.87 82"><defs><style>.cls-1{fill:#fff;stroke:#767676;stroke-width:2px;}.cls-2{fill:#ff6007;}</style></defs><title>ban-icon</title><g id="Layer_2" data-name="Layer 2"><g id="Layer_1-2" data-name="Layer 1"><path class="cls-1" d="M35.54,6.71a11.43,11.43,0,0,1,19.79,0l16.5,28.58,16.5,28.57A11.43,11.43,0,0,1,78.43,81h-66a11.43,11.43,0,0,1-9.9-17.14L19,35.29Z"/><path class="cls-2" d="M41.91,62.23a3.86,3.86,0,0,1,3.88-3.88,3.89,3.89,0,0,1,0,7.77A3.86,3.86,0,0,1,41.91,62.23Zm3.85-7.93h0A2.75,2.75,0,0,1,43,51.59l-.4-22.67a2.75,2.75,0,0,1,2.76-2.8h.79a2.75,2.75,0,0,1,2.75,2.8l-.39,22.67A2.76,2.76,0,0,1,45.76,54.3Z"/></g></g></svg>