<svg xmlns="http://www.w3.org/2000/svg" viewBox="0 0 167.14 96.13"><defs><style>.cls-1{fill:none;}.cls-1,.cls-2{stroke:#767676;}.cls-1,.cls-2,.cls-3{stroke-linecap:round;stroke-linejoin:round;stroke-width:2px;}.cls-2{fill:#fff;}.cls-3{fill:#ff6007;stroke:#ff6007;}</style></defs><title>bicycle-icon</title><g id="Layer_2" data-name="Layer 2"><g id="Layer_1-2" data-name="Layer 1"><line class="cls-1" x1="94.46" y1="60.29" x2="42.22" y2="19.67"/><path class="cls-1" d="M99.19,71a33.48,33.48,0,0,1,66.95,0"/><line class="cls-1" x1="110.22" y1="22.75" x2="91.51" y2="69.14"/><path class="cls-1" d="M3.77,46.08A33.53,33.53,0,0,1,59.74,71"/><path class="cls-2" d="M25.9,45.32A24.91,24.91,0,1,0,50.8,70.23,24.9,24.9,0,0,0,25.9,45.32Zm0,43.8A18.9,18.9,0,1,1,44.8,70.23,18.89,18.89,0,0,1,25.9,89.12Z"/><path class="cls-2" d="M132.66,45.32a24.91,24.91,0,1,0,24.91,24.91A24.9,24.9,0,0,0,132.66,45.32Zm0,43.8a18.9,18.9,0,1,1,18.9-18.89A18.89,18.89,0,0,1,132.66,89.12Z"/><polygon class="cls-1" points="107.76 31.17 149.47 31.43 136.72 67.9 107.76 31.17"/><polyline class="cls-1" points="59.74 3.99 47.29 3.98 25.9 70.23"/><rect class="cls-2" x="59.74" y="1" width="14.23" height="5.98" rx="2.99"/><path class="cls-3" d="M98.41,20.21c.22,1.55,1.75,2.67,6,2.48s10.67,2.76,12.7,2.39,7.17-1.65,6.25-5.88-5-6-11-5.06S98,17.54,98.41,20.21Z"/><path class="cls-2" d="M136.7,67.88c1,4.59-10.31,9.32-24,12.51S75.12,90,73.16,75.24s22.62-13.58,36.09-13.58S135.47,62,136.7,67.88Z"/><circle class="cls-2" cx="89.1" cy="73.89" r="5.34"/><line class="cls-1" x1="89.1" y1="73.89" x2="86.77" y2="85.18"/><rect class="cls-2" x="81.45" y="84.44" width="9.42" height="5.11" rx="2.56" transform="translate(62.84 -33.2) rotate(33.74)"/></g></g></svg>