<svg xmlns="http://www.w3.org/2000/svg" viewBox="0 0 97.38 83.92"><defs><style>.cls-1{fill:#fff;stroke:#767676;stroke-linecap:round;stroke-linejoin:round;stroke-width:2px;}.cls-2{fill:#ff6007;}</style></defs><title>freshfood-icon</title><g id="Layer_2" data-name="Layer 2"><g id="Layer_1-2" data-name="Layer 1"><path class="cls-1" d="M48.69,16.59C22.35,16.59,1,23.25,1,31.47V68.05c0,8.21,21.35,14.87,47.69,14.87s47.69-6.66,47.69-14.87V31.47C96.38,23.25,75,16.59,48.69,16.59Z"/><ellipse class="cls-1" cx="48.69" cy="31.47" rx="47.69" ry="14.87"/><path class="cls-2" d="M33.31,24.33c2.65,0,7.69-.76,7.69-7.86,0-6.33-5.13-13.08-7.69-13.08s-7.7,4.53-7.7,13.25C25.61,23.48,30.66,24.29,33.31,24.33Z"/><path class="cls-2" d="M48.12,20.94c2.65,0,7.69-.76,7.69-7.86C55.81,6.75,50.68,0,48.12,0s-7.69,4.53-7.69,13.25C40.43,20.09,45.47,20.9,48.12,20.94Z"/><path class="cls-2" d="M63,24.44c2.65,0,7.69-.76,7.69-7.87,0-6.32-5.13-13.08-7.69-13.08S55.3,8,55.3,16.74C55.3,23.58,60.34,24.4,63,24.44Z"/><path class="cls-2" d="M33.31,41.94C36,42,41,41.18,41,34.07,41,27.75,35.87,21,33.31,21s-7.7,4.53-7.7,13.24C25.61,41.08,30.66,41.9,33.31,41.94Z"/><path class="cls-2" d="M48.69,43.26c2.65,0,7.69-.76,7.69-7.86,0-6.33-5.12-13.08-7.69-13.08S41,26.85,41,35.57C41,42.4,46.05,43.22,48.69,43.26Z"/><path class="cls-2" d="M64.08,41.94c2.65,0,7.69-.76,7.69-7.87,0-6.32-5.13-13.07-7.69-13.07s-7.7,4.53-7.7,13.24C56.38,41.08,61.43,41.9,64.08,41.94Z"/><path class="cls-2" d="M77.11,32.79c2.65,0,7.69-.76,7.69-7.87,0-6.32-5.13-13.07-7.69-13.07s-7.7,4.53-7.7,13.25C69.41,31.93,74.46,32.75,77.11,32.79Z"/><path class="cls-2" d="M19.61,32.79c2.65,0,7.69-.76,7.69-7.87,0-6.32-5.12-13.07-7.69-13.07s-7.69,4.53-7.69,13.25C11.92,31.93,17,32.75,19.61,32.79Z"/><path class="cls-1" d="M96.14,55.89a11.31,11.31,0,0,1-8.21,9c-8.6,2.51-8.26-9.11-18.52-7.29s-7.69,13.9-20.72,13.45S38.24,59.67,28.44,58.53s-8.78,9.14-18.71,7.19c-7.13-1.4-8.44-7-8.68-9H1V68.05c0,8.21,21.35,14.87,47.69,14.87s47.69-6.66,47.69-14.87l-.24-12.16Z"/></g></g></svg>