<svg xmlns="http://www.w3.org/2000/svg" viewBox="0 0 82 50.7"><defs><style>.cls-1{fill:#fff;}.cls-1,.cls-2{stroke:#767676;}.cls-1,.cls-2,.cls-3{stroke-linecap:round;stroke-linejoin:round;stroke-width:2px;}.cls-2,.cls-3{fill:none;}.cls-3{stroke:#ff6f00;}</style></defs><title>coupon-icon</title><g id="Layer_2" data-name="Layer 2"><g id="Layer_1-2" data-name="Layer 1"><path class="cls-1" d="M71.66,25.35A9.34,9.34,0,0,1,81,16V6.22A5.22,5.22,0,0,0,75.78,1H6.22A5.22,5.22,0,0,0,1,6.22V16A9.34,9.34,0,0,1,1,34.69v9.79A5.22,5.22,0,0,0,6.22,49.7H75.78A5.22,5.22,0,0,0,81,44.48V34.69A9.34,9.34,0,0,1,71.66,25.35Z"/><line class="cls-2" x1="18.77" y1="1" x2="18.77" y2="49.7"/><line class="cls-3" x1="51.8" y1="17.2" x2="40.38" y2="32.49"/><circle class="cls-3" cx="41.21" cy="20.65" r="3.01"/><circle class="cls-3" cx="51.18" cy="28.89" r="3.01"/></g></g></svg>