<svg xmlns="http://www.w3.org/2000/svg" viewBox="0 0 122.73 65.68"><defs><style>.cls-1{fill:#fff;}.cls-1,.cls-2{stroke:#767676;stroke-width:2px;}.cls-1,.cls-2,.cls-3{stroke-linecap:round;stroke-linejoin:round;}.cls-2,.cls-3{fill:none;}.cls-3{stroke:#ff6f00;stroke-width:5px;}</style></defs><title>delivery-icon_1</title><g id="Layer_2" data-name="Layer 2"><g id="Layer_1-2" data-name="Layer 1"><path class="cls-1" d="M83.89,11.05H106a4.78,4.78,0,0,1,4,2.23L121,30.65a4.75,4.75,0,0,1,.73,2.54V51.94A4.77,4.77,0,0,1,117,56.71H81.59"/><path class="cls-2" d="M99.55,19c.12.38,0,17,0,17h22.18"/><path class="cls-1" d="M20.67,6V5.61A4.6,4.6,0,0,1,25.28,1H78.61a4.6,4.6,0,0,1,4.61,4.61V53a4.6,4.6,0,0,1-4.61,4.6H25.28A4.6,4.6,0,0,1,20.67,53h0"/><circle class="cls-1" cx="44.09" cy="55.07" r="9.61"/><circle class="cls-1" cx="104.02" cy="55.07" r="9.61"/><line class="cls-2" x1="15.23" y1="12.05" x2="36.16" y2="12.05"/><line class="cls-3" x1="7.02" y1="24.11" x2="26.95" y2="24.11"/><line class="cls-3" x1="2.5" y1="35.92" x2="35.49" y2="35.92"/><line class="cls-3" x1="5.77" y1="47.05" x2="27.45" y2="47.05"/></g></g></svg>