<svg xmlns="http://www.w3.org/2000/svg" viewBox="0 0 108.47 75.94"><defs><style>.cls-1{fill:#fff;stroke:#767676;stroke-linecap:round;stroke-linejoin:round;stroke-width:2px;}.cls-2{fill:#ff6007;}</style></defs><title>fire-icon</title><g id="Layer_2" data-name="Layer 2"><g id="Layer_1-2" data-name="Layer 1"><path class="cls-1" d="M29.25,1S6.55,21.07,1.78,39,15.12,69.44,27.62,71.41s30.26-13,30.26-23.2-15-31.42-15-31.42,1.76,11.85-3.56,11.68-5.82-3.78-6-9.21S32.38,1.49,29.25,1Z"/><path class="cls-2" d="M22.67,27.32s-10.85,19.91-5.1,30.93,14.48,7.4,18.76,2.8,4-12.06-.82-14.63C25.31,41,22.67,27.32,22.67,27.32Z"/><ellipse class="cls-1" cx="30.57" cy="68.19" rx="9.95" ry="6.75"/><rect class="cls-1" x="71.21" y="34.4" width="4.92" height="67.61" transform="translate(5.47 141.87) rotate(-90)"/></g></g></svg>