<svg xmlns="http://www.w3.org/2000/svg" viewBox="0 0 31.66 82.39"><defs><style>.cls-1{fill:#fff;stroke:#767676;stroke-linecap:round;stroke-linejoin:round;stroke-width:2px;}.cls-2{fill:#ff6007;}</style></defs><title>golfbag-icon-w_1</title><g id="Layer_2" data-name="Layer 2"><g id="Layer_1-2" data-name="Layer 1"><path class="cls-1" d="M30.34,57.61c-1.68-9.08-8.42-18-9.6-19.32l.59-4.68a1,1,0,0,0-1-1.13H8.46a1,1,0,0,0-1,1.12l.58,4.72s-3.47.91-4.48,5.74S-3.38,74.8,7.22,75.58v4.81a1,1,0,0,0,1,1H20.44a1,1,0,0,0,1-1v-4.8s3.73.25,4.49-1.18.6-5.65.6-5.65S32,66.7,30.34,57.61Zm-4.68,6.85L21.44,61,19.78,42.94s3.91,5.61,5.44,10.33C26.4,56.94,28.62,63.93,25.66,64.46Z"/><rect class="cls-2" x="11.12" y="14.26" width="2" height="15.17"/><rect class="cls-2" x="15.47" y="6.59" width="2" height="22.84"/><path class="cls-2" d="M5,5.56c-1.14.06-1.82.13-3.6,2.48S.31,11.81.54,12.17s.51,1.05,2.81,2.08A32.27,32.27,0,0,0,9.66,16.1a4.13,4.13,0,0,0,3-.71,1.7,1.7,0,0,0,.21-2,12.27,12.27,0,0,0-1.71-3.2C9.93,8.3,6.7,5.49,5,5.56Z"/><path class="cls-2" d="M26.3,0A3.21,3.21,0,0,1,29,1a6.73,6.73,0,0,1,1.13,3.77c.09,1.67-.48,2.86-1.67,3.24-1.55.49-6.84.5-8.37.53s-3.58.3-4.25-.8a2.48,2.48,0,0,1,.57-3.21A11.28,11.28,0,0,1,20,2,23.91,23.91,0,0,1,26.3,0Z"/></g></g></svg>