<svg xmlns="http://www.w3.org/2000/svg" viewBox="0 0 30.45 80.37"><defs><style>.cls-1{fill:#ff6007;}</style></defs><title>golfbag-icon-o_1</title><g id="Layer_2" data-name="Layer 2"><g id="Layer_1-2" data-name="Layer 1"><rect class="cls-1" x="10.91" y="14.37" width="2" height="15.06"/><rect class="cls-1" x="15.26" y="6.53" width="2" height="22.9"/><path class="cls-1" d="M4.78,5.56C3.63,5.62,3,5.69,1.18,8S.1,11.81.32,12.17s.51,1.05,2.82,2.08A32.27,32.27,0,0,0,9.45,16.1a4.1,4.1,0,0,0,3-.71,1.7,1.7,0,0,0,.22-2A12.61,12.61,0,0,0,11,10.18C9.72,8.3,6.49,5.49,4.78,5.56Z"/><path class="cls-1" d="M26.08,0a3.22,3.22,0,0,1,2.71,1,6.73,6.73,0,0,1,1.13,3.77C30,6.45,29.44,7.64,28.25,8c-1.55.49-6.85.5-8.38.53s-3.57.3-4.24-.8a2.49,2.49,0,0,1,.56-3.21A11.24,11.24,0,0,1,19.83,2,24,24,0,0,1,26.08,0Z"/><path class="cls-1" d="M15.88,68.78a80.06,80.06,0,0,0,.1-16c-.66-6.22-2.7-10.31-4.39-12.07A9.24,9.24,0,0,0,6.43,38a7.73,7.73,0,0,0-3.07,5c-.91,4.35-5.8,25.74.94,30.56C11.25,73.61,15.24,73.23,15.88,68.78Z"/><path class="cls-1" d="M30.13,56.6c-1.68-9.09-8.42-18.06-9.6-19.32l.59-4.69a1,1,0,0,0-1-1.12H8.24a1,1,0,0,0-1,1.12l.46,3.66A11.23,11.23,0,0,1,13,39.33c2.49,2.59,4.33,7.54,4.94,13.25a81.12,81.12,0,0,1-.11,16.49c-.78,5.41-5.37,6.36-10.85,6.51v3.79a1,1,0,0,0,1,1H20.23a1,1,0,0,0,1-1v-4.8s3.74.25,4.5-1.18.6-5.65.6-5.65S31.82,65.69,30.13,56.6Zm-4.68,6.84L21.22,60,19.57,41.92S23.48,47.54,25,52.26C26.19,55.92,28.4,62.92,25.45,63.44Z"/></g></g></svg>