<svg xmlns="http://www.w3.org/2000/svg" viewBox="0 0 73.79 68.7"><defs><style>.cls-1{fill:#fff;}.cls-1,.cls-2{stroke:#767676;stroke-linecap:round;stroke-linejoin:round;stroke-width:2px;}.cls-2{fill:none;}.cls-3{fill:#ff6007;}</style></defs><title>jewelry-icon</title><g id="Layer_2" data-name="Layer 2"><g id="Layer_1-2" data-name="Layer 1"><polygon class="cls-1" points="1.09 28.2 18.02 9.91 56.16 9.91 72.69 28.2 37.67 67.7 1.09 28.2"/><polygon class="cls-2" points="19.29 28.2 55.69 28.2 37.58 67.7 19.29 28.2"/><polygon class="cls-2" points="37.58 9.91 19.29 28.2 55.69 28.2 37.58 9.91"/><line class="cls-2" x1="1" y1="28.2" x2="72.79" y2="28.2"/><polyline class="cls-2" points="56.06 9.91 55.69 28.2 37.58 67.7 19.29 28.2 17.93 9.91"/><polyline class="cls-2" points="19.29 28.2 37.58 9.91 55.69 28.2"/><path class="cls-3" d="M56.06,22.17s-.74-8.5,10.35-12.56c0,0-7.41-.19-10.36-9.61,0,0-2.76,8.87-10.33,9.61C45.72,9.61,55.51,12.38,56.06,22.17Z"/></g></g></svg>