<svg xmlns="http://www.w3.org/2000/svg" viewBox="0 0 59.1 82"><defs><style>.cls-1{fill:#fff;stroke:#767676;stroke-linecap:round;stroke-linejoin:round;stroke-width:2px;}.cls-2{fill:#ff6007;}</style></defs><title>lock-icon_1</title><g id="Layer_2" data-name="Layer 2"><g id="Layer_1-2" data-name="Layer 1"><path class="cls-1" d="M49.26,28.89H47.37v-10A17.86,17.86,0,0,0,29.51,1h0A17.86,17.86,0,0,0,11.65,18.86v10H9.84A8.83,8.83,0,0,0,1,37.72V72.16A8.84,8.84,0,0,0,9.84,81H49.26a8.84,8.84,0,0,0,8.84-8.84V37.72A8.83,8.83,0,0,0,49.26,28.89Zm-30-10a10.27,10.27,0,0,1,20.54,0v10H19.28Z"/><path class="cls-2" d="M36.83,50.89A7.28,7.28,0,1,0,27,57.71v7.34a2.63,2.63,0,1,0,5.25,0V57.66A7.27,7.27,0,0,0,36.83,50.89Z"/></g></g></svg>