<svg xmlns="http://www.w3.org/2000/svg" viewBox="0 0 81 76.79"><defs><style>.cls-1,.cls-3{fill:#fff;}.cls-1,.cls-2{stroke:#767676;}.cls-1,.cls-2,.cls-6{stroke-linecap:round;stroke-linejoin:round;stroke-width:2px;}.cls-2,.cls-5,.cls-6{fill:none;}.cls-4{fill:#ff6007;}.cls-5{stroke:#ff6007;stroke-miterlimit:10;stroke-width:5px;}.cls-6{stroke:#fff;}</style></defs><title>pickup-icon_2</title><g id="Layer_2" data-name="Layer 2"><g id="Layer_1-2" data-name="Layer 1"><path class="cls-1" d="M8.43,22.86V65.5a3.26,3.26,0,0,0,3.26,3.27H66.26a3.26,3.26,0,0,0,3.27-3.27V22.86"/><path class="cls-2" d="M26.27,68.77V41.4a3.26,3.26,0,0,1,3.27-3.27H48.4a3.26,3.26,0,0,1,3.26,3.27V68.77"/><path class="cls-3" d="M73.6,39.13h-8v8.63h8Z"/><path class="cls-4" d="M78.5,74.5H60.57a2.5,2.5,0,0,1-2.5-2.5V49.3a2.5,2.5,0,0,1,2.5-2.5H78.5A2.5,2.5,0,0,1,81,49.3V72A2.5,2.5,0,0,1,78.5,74.5Z"/><path class="cls-5" d="M65.62,46.8V39.13a1,1,0,0,1,1-1h6a1,1,0,0,1,1,1V46.8"/><path class="cls-6" d="M67.7,62.21v8.23"/><path class="cls-6" d="M76.83,59.47v11"/><path class="cls-6" d="M72.27,55.82V70.44"/><path class="cls-4" d="M59.87,74v1.79a1,1,0,0,0,1,1h0a1,1,0,0,0,1-1V74"/><path class="cls-4" d="M77.13,74v1.79a1,1,0,0,0,1,1h0a1,1,0,0,0,1-1V74"/><path class="cls-4" d="M72.61,38.13h-6a1,1,0,0,0-1,1V40.5h8V39.12A1,1,0,0,0,72.61,38.13Z"/><path class="cls-2" d="M1,28.06,37.06,1.63a3.26,3.26,0,0,1,3.85,0l35.74,26"/><path class="cls-1" d="M8.43,22.86,36.9,1.63a3.26,3.26,0,0,1,3.85,0L69.53,22.86"/></g></g></svg>