<svg xmlns="http://www.w3.org/2000/svg" viewBox="0 0 76.92 93.02"><defs><style>.cls-1{fill:#fff;stroke:#767676;stroke-linecap:round;stroke-linejoin:round;stroke-width:2px;}.cls-2{fill:#ff6007;}</style></defs><title>livingthing-icon</title><g id="Layer_2" data-name="Layer 2"><g id="Layer_1-2" data-name="Layer 1"><path class="cls-1" d="M47.21,42.81c3.16,3.42,7.43,3.69,17.11-5.26S77.25,18.62,75.45,16.69,61.28,19.87,54.22,26.4C44.42,35.46,44.16,39.51,47.21,42.81Z"/><path class="cls-1" d="M29.71,42.81c-3.16,3.42-7.43,3.69-17.11-5.26S-.32,18.62,1.47,16.69s14.18,3.18,21.24,9.71C32.5,35.46,32.77,39.51,29.71,42.81Z"/><path class="cls-2" d="M43.09,45c4.72,2,9.13.35,14.81-13S62.33,7.14,59.66,6s-12.8,9.59-16.94,19.34C37,38.85,38.53,43,43.09,45Z"/><path class="cls-2" d="M34.93,45c-4.72,2-9.13.35-14.81-13S15.69,7.14,18.36,6s12.8,9.59,16.94,19.34C41,38.85,39.48,43,34.93,45Z"/><path class="cls-1" d="M38.75,43.35c5.13,0,8.54-3.24,8.54-17.76S41.66,1,38.75,1s-8,13.83-8,24.42C30.73,40.11,33.8,43.35,38.75,43.35Z"/><path class="cls-1" d="M55.8,92H21.71a3.88,3.88,0,0,1-3.87-3.55l-3-34H62.66l-3,34A3.89,3.89,0,0,1,55.8,92Z"/><rect class="cls-1" x="10.75" y="39.08" width="56.01" height="17.08" rx="5"/></g></g></svg>