<svg xmlns="http://www.w3.org/2000/svg" viewBox="0 0 82 72.4"><defs><style>.cls-1{fill:#fff;}.cls-1,.cls-2{stroke:#767676;}.cls-1,.cls-2,.cls-3{stroke-linecap:round;stroke-linejoin:round;stroke-width:2px;}.cls-2,.cls-3{fill:none;}.cls-3{stroke:#ff6f00;}</style></defs><title>point-icon</title><g id="Layer_2" data-name="Layer 2"><g id="Layer_1-2" data-name="Layer 1"><path class="cls-1" d="M1,12.69V60.14H1C1.45,66.39,10.53,71.4,21.7,71.4s20.26-5,20.67-11.26h0V12.69Z"/><path class="cls-2" d="M42.41,24.38c0,6.46-9.27,11.7-20.71,11.7S1,30.84,1,24.38"/><path class="cls-2" d="M42.41,36.08c0,6.45-9.27,11.69-20.71,11.69S1,42.53,1,36.08"/><path class="cls-2" d="M42.41,47.77c0,6.46-9.27,11.69-20.71,11.69S1,54.23,1,47.77"/><ellipse class="cls-1" cx="21.7" cy="12.69" rx="20.7" ry="11.69"/><circle class="cls-1" cx="59.08" cy="46.87" r="21.92"/><circle class="cls-1" cx="59.08" cy="46.87" r="15.32"/><path class="cls-3" d="M64.13,41.05c-.49-1.54-2.59-2.94-5.23-2.94-3,0-5.16,2-5.16,4.37,0,0-.42,3.18,5.19,4.11,6,1,5.65,4.08,5.65,4.62,0,2.85-2.7,4.42-5.68,4.42-3.26,0-5-1.65-5.33-3.11"/><line class="cls-3" x1="59.08" y1="36.17" x2="59.08" y2="57.57"/></g></g></svg>