<svg xmlns="http://www.w3.org/2000/svg" viewBox="0 0 59.62 96.73"><defs><style>.cls-1,.cls-2{fill:#fff;}.cls-1,.cls-2,.cls-3{stroke:#767676;stroke-width:2px;}.cls-1{stroke-miterlimit:10;}.cls-3,.cls-4{fill:none;stroke-linecap:round;stroke-linejoin:round;}.cls-4{stroke:#ff6f00;stroke-width:5px;}</style></defs><title>reservation-icon_1</title><g id="Layer_2" data-name="Layer 2"><g id="Layer_1-2" data-name="Layer 1"><path class="cls-1" d="M47.34,95.73H12.28A11.28,11.28,0,0,1,1,84.45V12.28A11.28,11.28,0,0,1,12.28,1H47.34A11.28,11.28,0,0,1,58.62,12.28V84.45A11.28,11.28,0,0,1,47.34,95.73Z"/><path class="cls-2" d="M49.18,79.32H10.62A2.3,2.3,0,0,1,8.33,77v-59a2.29,2.29,0,0,1,2.29-2.29H49.18a2.28,2.28,0,0,1,2.29,2.29V77A2.29,2.29,0,0,1,49.18,79.32Z"/><path class="cls-3" d="M23.74,8.5H35.89"/><path class="cls-4" d="M18.2,43.85l10,9.34L42.94,39.08"/></g></g></svg>