<svg xmlns="http://www.w3.org/2000/svg" viewBox="0 0 82 73.18"><defs><style>.cls-1{fill:#fff;stroke:#767676;stroke-linecap:round;stroke-linejoin:round;stroke-width:2px;}.cls-2{fill:#ff6f00;}</style></defs><title>review-icon</title><g id="Layer_2" data-name="Layer 2"><g id="Layer_1-2" data-name="Layer 1"><path class="cls-1" d="M55.88,33.76C69.75,33.76,81,41.39,81,50.81c0,5.73-4.18,10.79-10.57,13.88a11.39,11.39,0,0,0,6,7.2s-9.22,2-14.17-4.61a37,37,0,0,1-6.41.58c-13.88,0-25.12-7.64-25.12-17S42,33.76,55.88,33.76Z"/><path class="cls-1" d="M37.16,1C17.19,1,1,12,1,25.54c0,8.25,6,15.53,15.21,20-.86,2.77-3.16,8-8.68,10.37,0,0,13.28,2.89,20.4-6.64a53.07,53.07,0,0,0,9.23.83c20,0,36.16-11,36.16-24.54S57.13,1,37.16,1Z"/><circle class="cls-2" cx="25.9" cy="24.16" r="3.7"/><circle class="cls-2" cx="36.5" cy="24.16" r="3.7"/><circle class="cls-2" cx="47.09" cy="24.16" r="3.7"/></g></g></svg>