<svg xmlns="http://www.w3.org/2000/svg" viewBox="0 0 70.18 82"><defs><style>.cls-1,.cls-3{fill:#fff;}.cls-1{stroke:#767676;stroke-width:2px;}.cls-2{fill:#ff6f00;}</style></defs><title>storagepoint-icon</title><g id="Layer_2" data-name="Layer 2"><g id="Layer_1-2" data-name="Layer 1"><path class="cls-1" d="M39.7,79.21c2.47-2.49,9.44-9.81,15.17-15.76,2.58-3,14.4-12.17,14.31-27.91C69.09,17.12,54,1,34.65,1,25,1,16,5.81,10,12.58A35.42,35.42,0,0,0,1,35.54C1,48.72,9.89,58,14.73,63.07,20.89,70.05,27,76,30.15,79.19A6.73,6.73,0,0,0,35,81,6.77,6.77,0,0,0,39.7,79.21Z"/><g id="Layer_2-2" data-name="Layer 2"><g id="Layer_1-2-2" data-name="Layer 1-2"><path class="cls-2" d="M35.08,55.81A20.43,20.43,0,1,0,14.65,35.38,20.43,20.43,0,0,0,35.08,55.81Z"/><path class="cls-3" d="M35,29.19c-1.92,0-3.31,1-3.27,2.3,0,1,.78,1.74,2.67,2.18l2.72.63c3.15.69,4.66,2.21,4.69,4.63,0,3.09-2.61,5.3-7,5.3-2.94,0-5-.94-6.14-2.65a1.58,1.58,0,0,1,.57-2.15,1.56,1.56,0,0,1,.81-.21h.26a1.43,1.43,0,0,1,1.25.83c.52,1,1.61,1.47,3.22,1.47,2.18,0,3.57-.88,3.6-2.33,0-1.11-.85-1.83-2.65-2.24l-2.68-.57c-3.09-.69-4.7-2.33-4.7-4.7,0-3.05,2.65-5.13,6.62-5.13,2.62,0,4.56.92,5.63,2.45a1.54,1.54,0,0,1-.36,2.14,1.56,1.56,0,0,1-.9.29h0A1.55,1.55,0,0,1,38,30.68,3.1,3.1,0,0,0,35,29.19Z"/></g></g></g></g></svg>