<svg xmlns="http://www.w3.org/2000/svg" viewBox="0 0 82 85.24"><defs><style>.cls-1{fill:#fff;}.cls-1,.cls-5{stroke:#767676;}.cls-1,.cls-4,.cls-5{stroke-linecap:round;stroke-linejoin:round;stroke-width:2px;}.cls-2{fill:#ff6007;}.cls-3,.cls-4,.cls-5{fill:none;}.cls-3{stroke:#ff6007;stroke-miterlimit:10;stroke-width:5px;}.cls-4{stroke:#fff;}</style></defs><title>storage</title><g id="Layer_2" data-name="Layer 2"><g id="Layer_1-2" data-name="Layer 1"><path class="cls-1" d="M11.39,46.32l-1.24-.65V38.59l31.12-11,30.06,11,.6.22v6.86L40.74,61.82Z"/><polygon class="cls-1" points="10.11 38.7 10.11 74.06 40.91 84.24 71.68 73.9 71.71 38.7 41.44 48.89 10.11 38.7"/><path class="cls-2" d="M52.51,50.38H29.31a3.5,3.5,0,0,1-3.5-3.5V17.4a3.5,3.5,0,0,1,3.5-3.5h23.2A3.5,3.5,0,0,1,56,17.4V46.88A3.5,3.5,0,0,1,52.51,50.38Z"/><path class="cls-3" d="M35.74,13.91V3.8a1.31,1.31,0,0,1,1.31-1.3H45a1.3,1.3,0,0,1,1.3,1.3V13.91"/><path class="cls-4" d="M38.49,34.2V45"/><path class="cls-4" d="M50.52,30.59V45"/><path class="cls-4" d="M44.5,25.78V45"/><path class="cls-2" d="M28.17,49.72v2.36a1.32,1.32,0,0,0,1.32,1.32h0a1.32,1.32,0,0,0,1.31-1.32V49.72"/><path class="cls-2" d="M50.91,49.72v2.36a1.32,1.32,0,0,0,1.32,1.32h0a1.32,1.32,0,0,0,1.31-1.32V49.72"/><path class="cls-2" d="M45,2.49H37.05a1.31,1.31,0,0,0-1.31,1.3V5.61H46.26V3.79A1.3,1.3,0,0,0,45,2.49Z"/><polygon class="cls-1" points="41.04 48.89 10.11 38.7 1 52.23 31.93 63.08 41.04 48.89"/><polygon class="cls-1" points="41.44 48.89 71.94 38.81 81 52.53 50.55 63.08 41.44 48.89"/><line class="cls-5" x1="41.04" y1="48.89" x2="41.04" y2="84.24"/></g></g></svg>