<svg xmlns="http://www.w3.org/2000/svg" viewBox="0 0 62 103.16"><defs><style>.cls-1{fill:#fff;}.cls-1,.cls-2{stroke:#767676;stroke-linecap:round;stroke-linejoin:round;stroke-width:2px;}.cls-2{fill:none;}</style></defs><title>suitcase-icon</title><g id="Layer_2" data-name="Layer 2"><g id="Layer_1-2" data-name="Layer 1"><path class="cls-1" d="M6.06,94.86V100a2.18,2.18,0,0,0,2.18,2.19h.85A2.19,2.19,0,0,0,11.28,100V94.86"/><path class="cls-1" d="M50.84,94.86V100A2.19,2.19,0,0,0,53,102.16h.85A2.19,2.19,0,0,0,56.07,100V94.86"/><rect class="cls-1" x="1" y="23.68" width="60" height="72.5" rx="10"/><path class="cls-2" d="M20.69,23.68V3.59A2.59,2.59,0,0,1,23.28,1H39a2.59,2.59,0,0,1,2.59,2.59V23.68"/><line class="cls-2" x1="11.16" y1="35.68" x2="11.16" y2="78.88"/><line class="cls-2" x1="50.84" y1="35.68" x2="50.84" y2="78.88"/><line class="cls-2" x1="21.08" y1="35.68" x2="21.08" y2="83.86"/><line class="cls-2" x1="31" y1="35.68" x2="31" y2="83.86"/><line class="cls-2" x1="40.92" y1="35.68" x2="40.92" y2="83.86"/><path class="cls-1" d="M39,1H23.28a2.59,2.59,0,0,0-2.59,2.59V7.21H41.58V3.59A2.59,2.59,0,0,0,39,1Z"/></g></g></svg>